<?xml version="1.0" encoding="utf-8"?>
<!-- Generator: Adobe Illustrator 27.8.1, SVG Export Plug-In . SVG Version: 6.00 Build 0)  -->
<svg version="1.1" id="Layer_1" xmlns="http://www.w3.org/2000/svg" xmlns:xlink="http://www.w3.org/1999/xlink" x="0px" y="0px"
	 viewBox="0 0 128 128" style="enable-background:new 0 0 128 128;" xml:space="preserve">
<style type="text/css">
	.st0{fill:#350049;stroke:#242177;stroke-miterlimit:10;}
	.st1{font-family:'Bauhaus93';}
	.st2{font-size:88.5487px;}
	.st3{fill:#3B0051;stroke:#25237A;stroke-miterlimit:10;}
	.st4{fill:#410459;stroke:#26257D;stroke-miterlimit:10;}
	.st5{fill:#470D61;stroke:#272780;stroke-miterlimit:10;}
	.st6{fill:#4D1469;stroke:#292883;stroke-miterlimit:10;}
	.st7{fill:#521A71;stroke:#2A2A85;stroke-miterlimit:10;}
	.st8{fill:#571F79;stroke:#2B2B88;stroke-miterlimit:10;}
	.st9{fill:#5C2381;stroke:#2C2D8B;stroke-miterlimit:10;}
	.st10{fill:#602888;stroke:#2D2E8E;stroke-miterlimit:10;}
	.st11{fill:#662D91;stroke:#2E3192;stroke-miterlimit:10;}
</style>
<g>
	<text transform="matrix(1.0303 0 0 1 5.7124 94.5307)" class="st0 st1 st2">IC</text>
	<g>
		<rect x="13.83" y="34.53" class="st3" width="18.09" height="59.02"/>
		<path class="st3" d="M85.19,64.71l18.93,0.48c-1.25,9.51-4.64,16.86-10.18,22.05s-12.76,7.78-21.67,7.78
			c-9.06,0-16.64-2.95-22.74-8.84c-6.1-5.89-9.15-13.21-9.15-21.94c0-8.79,3.11-16.18,9.33-22.18c6.22-5.99,13.89-8.99,23.01-8.99
			c8.97,0,16.45,2.94,22.45,8.82c4.16,4.06,7.1,9.73,8.82,16.99l-19.38,1.25c-2.17-6.46-6.28-9.69-12.34-9.69
			c-3.86,0-7.05,1.3-9.56,3.89c-2.51,2.59-3.76,5.9-3.76,9.9c0,3.86,1.23,7.05,3.7,9.58c2.46,2.52,5.58,3.78,9.36,3.78
			c3.83,0,6.88-1.11,9.15-3.33C83.43,72.04,84.78,68.86,85.19,64.71z"/>
	</g>
	<g>
		<rect x="15.84" y="33.54" class="st4" width="18.09" height="59.02"/>
		<path class="st4" d="M87.2,63.72l18.93,0.48c-1.25,9.51-4.64,16.86-10.18,22.05s-12.76,7.78-21.67,7.78
			c-9.06,0-16.64-2.95-22.74-8.84c-6.1-5.89-9.15-13.21-9.15-21.94c0-8.79,3.11-16.18,9.33-22.18c6.22-5.99,13.89-8.99,23.01-8.99
			c8.97,0,16.45,2.94,22.45,8.82c4.16,4.06,7.1,9.73,8.82,16.99l-19.38,1.25c-2.17-6.46-6.28-9.69-12.34-9.69
			c-3.86,0-7.05,1.3-9.56,3.89c-2.51,2.59-3.76,5.9-3.76,9.9c0,3.86,1.23,7.05,3.7,9.58c2.46,2.52,5.58,3.78,9.36,3.78
			c3.83,0,6.88-1.11,9.15-3.33C85.44,71.06,86.79,67.87,87.2,63.72z"/>
	</g>
	<g>
		<rect x="17.85" y="32.56" class="st5" width="18.09" height="59.02"/>
		<path class="st5" d="M89.22,62.73l18.93,0.48c-1.25,9.51-4.64,16.86-10.18,22.05s-12.76,7.78-21.67,7.78
			c-9.06,0-16.64-2.95-22.74-8.84c-6.1-5.89-9.15-13.21-9.15-21.94c0-8.79,3.11-16.18,9.33-22.18c6.22-5.99,13.89-8.99,23.01-8.99
			c8.97,0,16.45,2.94,22.45,8.82c4.16,4.06,7.1,9.73,8.82,16.99l-19.38,1.25c-2.17-6.46-6.28-9.69-12.34-9.69
			c-3.86,0-7.05,1.3-9.56,3.89c-2.51,2.59-3.76,5.9-3.76,9.9c0,3.86,1.23,7.05,3.7,9.58c2.46,2.52,5.58,3.78,9.36,3.78
			c3.83,0,6.88-1.11,9.15-3.33C87.46,70.07,88.8,66.88,89.22,62.73z"/>
	</g>
	<g>
		<rect x="19.86" y="31.57" class="st6" width="18.09" height="59.02"/>
		<path class="st6" d="M91.23,61.75l18.93,0.48c-1.25,9.51-4.64,16.86-10.18,22.05s-12.76,7.78-21.67,7.78
			c-9.06,0-16.64-2.95-22.74-8.84c-6.1-5.89-9.15-13.21-9.15-21.94c0-8.79,3.11-16.18,9.33-22.18c6.22-5.99,13.89-8.99,23.01-8.99
			c8.97,0,16.45,2.94,22.45,8.82c4.16,4.06,7.1,9.73,8.82,16.99l-19.38,1.25c-2.17-6.46-6.28-9.69-12.34-9.69
			c-3.86,0-7.05,1.3-9.56,3.89c-2.51,2.59-3.76,5.9-3.76,9.9c0,3.86,1.23,7.05,3.7,9.58c2.46,2.52,5.58,3.78,9.35,3.78
			c3.83,0,6.88-1.11,9.15-3.33C89.47,69.08,90.81,65.9,91.23,61.75z"/>
	</g>
	<g>
		<rect x="21.87" y="30.58" class="st7" width="18.09" height="59.02"/>
		<path class="st7" d="M93.24,60.76l18.93,0.48c-1.25,9.51-4.64,16.86-10.18,22.05s-12.76,7.78-21.67,7.78
			c-9.06,0-16.64-2.95-22.74-8.84c-6.1-5.89-9.15-13.21-9.15-21.94c0-8.79,3.11-16.18,9.33-22.18c6.22-5.99,13.89-8.99,23.01-8.99
			c8.97,0,16.45,2.94,22.45,8.82c4.16,4.06,7.1,9.73,8.82,16.99l-19.38,1.25c-2.17-6.46-6.28-9.69-12.34-9.69
			c-3.86,0-7.05,1.3-9.56,3.89c-2.51,2.59-3.76,5.9-3.76,9.9c0,3.86,1.23,7.05,3.7,9.58c2.46,2.52,5.58,3.78,9.35,3.78
			c3.83,0,6.88-1.11,9.15-3.33C91.48,68.1,92.82,64.91,93.24,60.76z"/>
	</g>
	<g>
		<rect x="23.89" y="29.6" class="st8" width="18.09" height="59.02"/>
		<path class="st8" d="M95.25,59.78l18.93,0.48c-1.25,9.51-4.64,16.86-10.18,22.05s-12.76,7.78-21.67,7.78
			c-9.06,0-16.64-2.95-22.74-8.84c-6.1-5.89-9.15-13.21-9.15-21.94c0-8.79,3.11-16.18,9.33-22.18c6.22-5.99,13.89-8.99,23.01-8.99
			c8.97,0,16.45,2.94,22.45,8.82c4.16,4.06,7.1,9.73,8.82,16.99l-19.38,1.25c-2.17-6.46-6.28-9.69-12.34-9.69
			c-3.86,0-7.05,1.3-9.56,3.89c-2.51,2.59-3.77,5.9-3.77,9.9c0,3.86,1.23,7.06,3.7,9.58c2.46,2.52,5.58,3.78,9.35,3.78
			c3.83,0,6.88-1.11,9.15-3.33C93.49,67.11,94.83,63.93,95.25,59.78z"/>
	</g>
	<g>
		<rect x="25.9" y="28.61" class="st9" width="18.09" height="59.02"/>
		<path class="st9" d="M97.26,58.79l18.93,0.48c-1.25,9.51-4.64,16.86-10.18,22.05S93.25,89.1,84.34,89.1
			c-9.06,0-16.64-2.95-22.74-8.84c-6.1-5.89-9.15-13.21-9.15-21.94c0-8.79,3.11-16.18,9.33-22.18c6.22-5.99,13.89-8.99,23.01-8.99
			c8.97,0,16.45,2.94,22.45,8.82c4.16,4.06,7.1,9.73,8.82,16.99l-19.38,1.25c-2.17-6.46-6.28-9.69-12.34-9.69
			c-3.86,0-7.05,1.3-9.56,3.89c-2.51,2.59-3.77,5.9-3.77,9.9c0,3.86,1.23,7.06,3.7,9.58c2.46,2.52,5.58,3.78,9.35,3.78
			c3.83,0,6.88-1.11,9.15-3.33C95.5,66.13,96.85,62.94,97.26,58.79z"/>
	</g>
	<g>
		<rect x="27.91" y="27.63" class="st10" width="18.09" height="59.02"/>
		<path class="st10" d="M99.27,57.81l18.93,0.48c-1.25,9.51-4.64,16.86-10.18,22.05s-12.76,7.78-21.67,7.78
			c-9.06,0-16.64-2.95-22.74-8.84c-6.1-5.89-9.15-13.21-9.15-21.94c0-8.79,3.11-16.18,9.33-22.18c6.22-5.99,13.89-8.99,23.01-8.99
			c8.97,0,16.45,2.94,22.45,8.82c4.16,4.06,7.1,9.73,8.82,16.99l-19.38,1.25c-2.17-6.46-6.28-9.69-12.34-9.69
			c-3.86,0-7.05,1.3-9.55,3.89c-2.51,2.59-3.77,5.9-3.77,9.9c0,3.86,1.23,7.06,3.7,9.58c2.46,2.52,5.58,3.78,9.35,3.78
			c3.83,0,6.88-1.11,9.15-3.33C97.51,65.14,98.86,61.96,99.27,57.81z"/>
	</g>
	<text transform="matrix(1.0303 0 0 1 23.8169 85.6586)" class="st11 st1 st2">IC</text>
</g>
</svg>
